<mxfile host="app.diagrams.net" modified="2024-04-26T13:40:44.407Z" agent="Mozilla/5.0 (Macintosh; Intel Mac OS X 10_15_7) AppleWebKit/537.36 (KHTML, like Gecko) Chrome/123.0.0.0 Safari/537.36" version="24.3.0" etag="FFXwMDUfc7LuOGxEgkAU" type="github">
  <diagram name="PÃ¡gina-1" id="qx-KBWQILRj1LQCwBhZf">
    <mxGraphModel>
      <root>
        <mxCell id="0" />
        <mxCell id="1" parent="0" />
      </root>
    </mxGraphModel>
  </diagram>
</mxfile>
